<?xml version="1.0" standalone="no"?><!DOCTYPE svg PUBLIC "-//W3C//DTD SVG 1.1//EN" "http://www.w3.org/Graphics/SVG/1.1/DTD/svg11.dtd"><svg t="1721639034876" class="icon" viewBox="0 0 1024 1024" version="1.1" xmlns="http://www.w3.org/2000/svg" p-id="2109" xmlns:xlink="http://www.w3.org/1999/xlink" width="200" height="200"><path d="M281.516798 921.642714a293.720907 102.357286 0 1 0 587.441815 0 293.720907 102.357286 0 1 0-587.441815 0Z" fill="#FCD095" p-id="2110"></path><path d="M529.215576 560.215958m-340.091136 1.187147a340.093208 340.093208 0 1 0 680.182272-2.374294 340.093208 340.093208 0 1 0-680.182272 2.374294Z" fill="#FFFFFF" p-id="2111"></path><path d="M565.510677 554.659881m-315.792555 1.102329a315.794478 315.794478 0 1 0 631.585109-2.204657 315.794478 315.794478 0 1 0-631.585109 2.204657Z" fill="#FFA515" p-id="2112"></path><path d="M633.981887 246.440653a315.705472 315.705472 0 0 1-240.317106 573.022788 315.794478 315.794478 0 1 0 240.317106-573.022788z" fill="#ED9406" p-id="2113"></path><path d="M530.467519 922.265758a361.988767 361.988767 0 1 1 360.742678-363.323861 362.433798 362.433798 0 0 1-360.742678 363.323861z m-2.403171-680.186416a318.108643 318.108643 0 1 0 319.265725 317.040568 318.464669 318.464669 0 0 0-319.265725-317.040568z" fill="#FFA910" p-id="2114"></path><path d="M936.959453 702.598122a260.788563 260.788563 0 1 1-521.577126 1.780127z" fill="#FFFFFF" p-id="2115"></path><path d="M930.372984 730.368099a232.217529 232.217529 0 0 1-464.435059 1.602114z" fill="#FFA910" p-id="2116"></path><path d="M915.063894 730.457105a232.217529 232.217529 0 0 1-448.85895 10.146723 232.217529 232.217529 0 0 0 464.257047-10.146723z" fill="#ED9406" p-id="2117"></path><path d="M676.793934 983.057086a279.835919 279.835919 0 0 1-280.547969-278.589831A18.780337 18.780337 0 0 1 415.29332 685.4199l521.577127-1.780127a18.780337 18.780337 0 0 1 18.869343 18.69133A279.835919 279.835919 0 0 1 676.793934 983.057086z m-241.91922-259.8985A242.008226 242.008226 0 0 0 917.11104 721.022434z" fill="#FFA910" p-id="2118"></path><path d="M676.793934 877.762591A14.241014 14.241014 0 0 1 662.463914 863.432571v-75.477373a14.241014 14.241014 0 1 1 28.482028 0V863.432571A14.241014 14.241014 0 0 1 676.793934 877.762591zM769.983568 838.777816a14.152007 14.152007 0 0 1-10.057716-4.183298L712.396468 787.332154a14.241014 14.241014 0 1 1 20.115432-20.204438l47.707396 47.35137a14.241014 14.241014 0 0 1-9.968709 24.387736zM629.620576 792.76154a14.241014 14.241014 0 0 1-10.146722-24.298729l2.314165-2.314165a14.241014 14.241014 0 0 1 20.204438 20.115432l-2.314165 2.314165a14.152007 14.152007 0 0 1-10.057716 4.183297zM583.248276 839.489866a14.241014 14.241014 0 0 1-10.146723-24.298729L586.808529 801.128136a14.241014 14.241014 0 1 1 20.204438 20.115432l-13.795982 13.884988a14.152007 14.152007 0 0 1-9.968709 4.36131z" fill="#ED9406" p-id="2119"></path><path d="M517.173186 491.663259m-7.854486 21.199317a22.607609 22.607609 0 1 0 15.708973-42.398634 22.607609 22.607609 0 1 0-15.708973 42.398634Z" fill="#3E3A39" p-id="2120"></path><path d="M687.664324 554.864298m-7.854487 21.199317a22.607609 22.607609 0 1 0 15.708973-42.398634 22.607609 22.607609 0 1 0-15.708973 42.398634Z" fill="#3E3A39" p-id="2121"></path><path d="M575.326712 596.413564a56.162998 56.162998 0 0 1-33.110357-72.095132l3.64926-9.879703a11.303805 11.303805 0 0 1 14.508032-7.0315l84.021981 31.152217a11.303805 11.303805 0 0 1 6.675475 14.508033l-3.649259 9.879703A56.162998 56.162998 0 0 1 575.326712 596.413564z" fill="#3E3A39" p-id="2122"></path><path d="M587.787599 562.769169a35.602534 35.602534 0 0 0-31.597249 3.471247 44.503168 44.503168 0 0 0 53.403801 19.759407A35.602534 35.602534 0 0 0 587.787599 562.769169z" fill="#FFFFFF" p-id="2123"></path><path d="M906.964318 193.30387h-15.843128v-15.754121a7.743551 7.743551 0 0 0-15.398096 0v15.843128h-15.843128a7.743551 7.743551 0 1 0 0 15.398096h15.843128v15.843128a7.743551 7.743551 0 0 0 15.398096 0v-16.021141h15.843128a7.743551 7.743551 0 0 0 7.743551-7.743551 7.654545 7.654545 0 0 0-7.743551-7.565539zM961.614208 457.741693h-16.02114v-15.843127a7.743551 7.743551 0 0 0-15.398096 0v15.843127h-15.843128a7.743551 7.743551 0 1 0 0 15.398096h15.843128v15.843128a7.743551 7.743551 0 1 0 15.398096 0v-15.843128h16.02114a7.743551 7.743551 0 1 0 0-15.398096z" fill="#F7E42F" p-id="2124"></path><path d="M231.762257 186.984421h-18.602325v-18.691331a8.900634 8.900634 0 1 0-17.801267 0V186.984421h-18.335305a8.900634 8.900634 0 0 0 0 17.801267h18.335305v17.801267a8.900634 8.900634 0 0 0 17.801267 0v-17.801267H231.762257a8.900634 8.900634 0 1 0 0-17.801267z m0 0M330.29227 155.743197a13.35095 13.35095 0 1 0 13.35095-13.35095 13.35095 13.35095 0 0 0-13.35095 13.35095z m0 0M759.836845 192.502813a17.801267 17.801267 0 1 0 8.900634-15.487102 17.801267 17.801267 0 0 0-8.900634 15.487102z m0 0" fill="#F8B62D" p-id="2125"></path><path d="M466.738982 17.872383a17.801267 17.801267 0 1 0 8.900634-15.487102 17.801267 17.801267 0 0 0-8.900634 15.487102z m0 0" fill="#F7E42F" p-id="2126"></path><path d="M95.404551 501.888836a36.225579 36.225579 0 1 1 36.225578-36.225579 36.314585 36.314585 0 0 1-36.225578 36.225579z m0-54.64989a18.335305 18.335305 0 1 0 18.335305 18.335305 18.335305 18.335305 0 0 0-18.335305-18.335305z m0 0M914.262837 360.279756a36.225579 36.225579 0 1 1 36.225579-36.225579 36.314585 36.314585 0 0 1-36.225579 36.225579z m0-54.64989a18.335305 18.335305 0 1 0 18.335306 18.335305 18.335305 18.335305 0 0 0-18.335306-18.335305z m0 0" fill="#F8B62D" p-id="2127"></path><path d="M73.954024 271.896465a4.895348 4.895348 0 0 0-6.942494 0 4.984355 4.984355 0 0 0 0 6.942494l15.754121 15.843128a4.984355 4.984355 0 0 0 6.942494 0 4.895348 4.895348 0 0 0 0-6.942495zM116.05402 313.818449a4.984355 4.984355 0 0 0-6.942494 0 4.895348 4.895348 0 0 0 0 6.942494L124.954654 336.515064a4.895348 4.895348 0 0 0 6.497462-7.120506z m-3.471247-17.801267a4.984355 4.984355 0 0 0 3.471247-1.246089l15.843128-15.843128a4.984355 4.984355 0 0 0 0-6.942494 4.895348 4.895348 0 0 0-6.942494 0l-16.199153 15.843128a4.895348 4.895348 0 0 0 0 6.942494 4.984355 4.984355 0 0 0 3.471247 1.424101z m-29.461097 17.801267L67.01153 329.394558a4.895348 4.895348 0 0 0 6.942494 6.942494L89.35212 320.493924a4.895348 4.895348 0 0 0-6.942494-6.942494z m3.115222-9.523678a4.895348 4.895348 0 0 0-4.895348-4.895349H58.644934a4.895348 4.895348 0 0 0 0 9.790697H80.451486a4.895348 4.895348 0 0 0 4.984355-4.895348z m54.115852-4.984355H117.567128a4.895348 4.895348 0 0 0 0 9.790697h22.429597a4.895348 4.895348 0 0 0 0-9.790697zM99.231823 258.189489a4.895348 4.895348 0 0 0-4.895348 4.895349v22.696615a4.895348 4.895348 0 1 0 9.790696 0v-22.34059a4.895348 4.895348 0 0 0-4.895348-5.251374z m0 59.100207a4.895348 4.895348 0 0 0-4.895348 4.895348v22.340591a4.895348 4.895348 0 0 0 9.790696 0v-21.984565a4.806342 4.806342 0 0 0-4.895348-4.895349z m0 0" fill="#FAEE00" p-id="2128"></path><path d="M594.285061 320.493924c-98.708026 57.676105-241.385182-2.848203-241.385182-2.848203s17.801267-153.98096 115.708236-211.657066 241.385182 2.848203 241.385182 2.848203-17.00021 154.336986-115.708236 211.657066z" fill="#FFFFFF" p-id="2129"></path><path d="M573.101553 278.126908C493.529889 324.588215 378.533704 275.990756 378.533704 275.990756S392.596705 151.381886 472.079363 105.276605s194.567849 2.314165 194.567849 2.314164S652.673217 231.487588 573.101553 278.126908z" fill="#8ED420" p-id="2130"></path><path d="M666.024168 106.878719h0.623044s-13.973995 124.60887-93.545659 171.248189c-52.513738 30.618179-120.336566 19.848413-160.211404 8.900634 8.900634 3.64926 117.666376 46.550313 193.944806 2.047146C685.694568 242.702387 700.113594 118.627555 700.113594 118.627555A292.91985 292.91985 0 0 0 666.024168 106.878719z" fill="#86C617" p-id="2131"></path><path d="M603.630726 336.87109c-105.561514 61.592384-251.798923 0.801057-258.118373-1.780127a18.602324 18.602324 0 0 1-11.214798-19.225368c0.801057-6.675475 19.6704-163.94967 125.231914-225.542055s251.798923-0.801057 258.118373 1.780127a18.602324 18.602324 0 0 1 11.214799 19.225368c-0.801057 6.675475-19.6704 163.94967-125.231915 225.542055z m-230.081377-30.974205C409.774928 318.446778 512.22122 347.195825 584.85039 304.828809s97.906969-145.614365 104.760457-183.442058c-36.403591-12.549893-138.582864-41.387946-211.301041 1.068076S380.491843 268.069192 373.549349 305.896885z" fill="#86C617" p-id="2132"></path><path d="M330.737302 214.576385c64.084562 38.717756 158.164258 0.534038 158.164258 0.534038S479.021857 113.999226 414.937295 75.28147 256.684031 74.747432 256.684031 74.747432s9.879703 101.111197 74.053271 139.828953z" fill="#FFFFFF" p-id="2133"></path><path d="M344.978315 186.984421C396.690996 218.047632 472.079363 186.984421 472.079363 186.984421s-8.01057-81.440797-59.634245-112.682021S285.166058 74.124387 285.166058 74.124387s8.099577 81.529803 59.812257 112.860034z" fill="#8ED420" p-id="2134"></path><path d="M285.789102 73.946375s8.01057 81.440797 59.634245 112.68202c34.089427 20.560464 78.681601 14.241014 105.027476 7.476533-5.874418 2.314165-77.524518 29.372091-127.101047-0.534038-51.712681-31.241224-59.634245-112.682021-59.634245-112.682021a191.986666 191.986666 0 0 1 22.073571-6.942494z" fill="#86C617" p-id="2135"></path><path d="M244.579169 75.99352a12.193868 12.193868 0 0 1 7.565538-12.460887c4.094291-1.69112 100.488153-40.052851 169.112038 1.335095s79.393651 144.724302 80.105702 149.085612a12.193868 12.193868 0 0 1-7.565539 12.460887c-4.094291 1.69112-100.488153 40.052851-169.112037-1.335095S245.024201 80.176818 244.579169 75.99352z m164.038676 9.701691c-47.173358-28.482027-114.462147-10.68076-138.404851-2.759197 4.183298 24.832768 19.6704 92.744602 66.843758 121.226629s114.551154 10.68076 138.493858 2.759197c-4.183298-24.832768-19.581394-92.566589-66.932765-121.226629z" fill="#86C617" p-id="2136"></path><path d="M311.333921 578.612297a16.377166 16.377166 0 0 0 17.801267-19.759406C322.103687 525.208496 318.098402 462.904061 373.28233 419.824994a16.377166 16.377166 0 1 0-20.115432-25.900843c-50.644605 39.3408-71.205068 102.090267-55.895978 172.138253A16.377166 16.377166 0 0 0 311.333921 578.612297zM331.894384 663.702354a16.377166 16.377166 0 0 0 20.738476-22.162578 252.154949 252.154949 0 0 1-11.926849-31.864268 16.377166 16.377166 0 1 0-31.419236 9.345665 284.820274 284.820274 0 0 0 13.439957 35.602535 16.377166 16.377166 0 0 0 9.167652 9.078646z" fill="#FFFFFF" p-id="2137"></path></svg>